<?xml version="1.0" encoding="UTF-8" standalone="no"?>
<!-- Created with Inkscape (http://www.inkscape.org/) -->

<svg
   width="148.93626mm"
   height="139.17755mm"
   viewBox="0 0 148.93626 139.17755"
   version="1.1"
   id="svg1"
   xml:space="preserve"
   sodipodi:docname="logo-chego.svg"
   xmlns:inkscape="http://www.inkscape.org/namespaces/inkscape"
   xmlns:sodipodi="http://sodipodi.sourceforge.net/DTD/sodipodi-0.dtd"
   xmlns="http://www.w3.org/2000/svg"
   xmlns:svg="http://www.w3.org/2000/svg"><sodipodi:namedview
     id="namedview1"
     pagecolor="#ffffff"
     bordercolor="#000000"
     borderopacity="0.25"
     inkscape:showpageshadow="2"
     inkscape:pageopacity="0.0"
     inkscape:pagecheckerboard="0"
     inkscape:deskcolor="#d1d1d1"
     inkscape:document-units="mm" /><defs
     id="defs1" /><g
     inkscape:groupmode="layer"
     id="layer2"
     inkscape:label="vetor"
     transform="translate(251.63875,-12.143611)"><g
       id="g10"
       transform="translate(-264.88319,-137.04973)"><g
         id="g9"
         transform="translate(-11.402175,127.79563)"
         style="fill:#081727;fill-opacity:1" /><g
         id="g11"><path
           id="path2"
           style="opacity:0.978261;fill:#ffffff;fill-opacity:1;stroke:none;stroke-width:0.264583;stroke-linecap:round;stroke-linejoin:round;stroke-dasharray:none;stroke-opacity:1"
           d="m 25.537459,38.084497 c -3.991403,13.933863 5.763499,22.161522 22.584668,27.456205 -6.347415,0.283183 -12.694833,-1.767784 -19.042248,-5.018815 1.057809,10.576927 8.475866,18.388525 27.604,21.108789 -3.590919,2.103217 -9.165918,1.37174 -15.499313,-0.442867 17.231018,21.716341 33.206737,5.167356 46.793526,12.694833 L 70.97758,95.298059 c -1.552128,-0.160408 -2.574701,0.208519 -1.878439,2.296501 l 4.801258,26.61646 c 1.018577,5.5575 1.882055,6.87884 7.932849,8.3504 l 24.738022,7.30653 c 3.7578,1.55347 6.31975,0.82431 8.55865,-0.52193 l 21.81521,-9.81181 c 5.25063,-3.37119 7.09382,-2.98769 7.82846,-11.32489 l 5.11804,-29.681907 7.46517,-3.058728 c 4.33726,-1.899321 4.31913,-5.788429 1.18081,-9.078516 l -7.15925,-8.450647 c -1.57576,-3.358923 -4.18276,-4.102715 -7.8233,-4.354773 l -32.10605,-5.277197 c -1.75529,-0.408342 -3.49084,-0.709796 -5.17436,-0.735356 -1.68352,-0.02556 -3.31539,0.224744 -4.86379,0.919841 l -13.653943,4.502567 1.549777,3.025656 12.842626,-4.317566 c 3.4159,-1.417098 5.22847,-0.917859 6.71639,-0.295073 l 31.66318,5.23999 c 4.19108,0.527939 2.78342,1.180479 0.81184,1.845366 l -25.68474,10.259322 c -2.09713,1.083396 -4.30586,2.172798 -8.04499,0.811837 -3.99382,-0.352342 -7.880013,-1.568864 -11.735715,-3.026172 2.208744,4.917573 6.865335,5.207115 10.259325,6.569108 C 89.481758,88.181373 93.584566,67.496696 77.202523,59.045492 63.159729,52.226828 41.352468,53.518214 25.537459,38.084497 Z m 122.780101,31.101978 5.6441,7.277592 c 4.22969,3.857826 2.40194,5.548258 -0.88573,6.716385 l -23.02754,9.816456 c -4.08498,2.027438 -6.06768,0.630909 -7.74991,-1.254704 l -6.42132,-7.159253 c -1.65,-1.497959 -0.87012,-2.035067 0.44287,-2.361613 z m -36.22053,16.748331 c 0.36447,0.0032 0.94509,0.606312 1.6397,1.526522 l 5.46168,6.347416 c 2.9431,3.553674 6.61939,5.373237 12.39976,2.214335 l 14.38672,-5.89473 -4.8643,28.028781 c -0.24399,4.83552 -2.46974,6.45043 -4.90565,7.72408 l -19.10168,8.66355 c -4.32084,2.33225 -6.581,3.02406 -5.32318,-2.92282 V 88.304687 c -0.2241,-1.696846 -0.081,-2.373275 0.30695,-2.369881 z"
           transform="translate(-11.40218,127.79563)" /><path
           style="opacity:0.978261;fill:#ffffff;fill-opacity:1;stroke:none;stroke-width:0.264583;stroke-linecap:round;stroke-linejoin:round;stroke-dasharray:none;stroke-opacity:1"
           d="m 64.359839,51.36978 c -1.623757,-3.19831 -2.460238,-6.1998 -2.509443,-9.004472 -3.173707,1.082504 -5.461729,3.247514 -6.864064,6.495028 3.124502,1.426939 6.249005,2.26342 9.373507,2.509444 z"
           id="path7"
           sodipodi:nodetypes="cccc"
           transform="translate(-11.40218,127.79563)" /><path
           style="opacity:0.978261;fill:#ffffff;fill-opacity:1;stroke:none;stroke-width:0.264583;stroke-linecap:round;stroke-linejoin:round;stroke-dasharray:none;stroke-opacity:1"
           d="m 69.725227,53.024574 c 6.547603,1.469104 11.818842,3.682754 15.030587,7.097776 l 15.343726,-4.905817 c 3.20031,-1.742231 8.14963,-2.044099 16.07438,0.104381 C 112.4804,43.187911 100.95244,41.082999 90.601042,37.47209 73.187771,31.551519 68.974724,26.510964 63.67124,21.397712 58.912817,34.425447 68.751495,41.52311 81.624441,47.388102 77.52909,48.174 71.725012,45.542445 65.132547,41.334115 c -0.23239,2.973195 -0.841068,5.749287 4.59268,11.690459 z"
           id="path8"
           sodipodi:nodetypes="ccccccccc"
           transform="translate(-11.40218,127.79563)" /><path
           style="opacity:0.978261;fill:#ffffff;fill-opacity:1;stroke:none;stroke-width:0.264583;stroke-linecap:round;stroke-linejoin:round;stroke-dasharray:none;stroke-opacity:1"
           d="M 119.86282,55.502981 C 117.05949,44.210091 107.28695,38.83048 95.358846,35.279822 l 35.427434,0.295227 c 20.70027,1.643358 38.08748,7.302551 40.59394,30.999006 2.6175,17.218139 2.45691,30.73214 1.77137,43.546225 -1.19183,18.19313 -2.11354,36.54665 -20.666,44.43191 -20.10706,6.85283 -44.44802,7.6754 -72.626247,3.39512 -15.095362,-1.6161 -25.90058,-8.7978 -30.703777,-23.7659 -3.246225,-16.4331 -3.743317,-30.11707 -3.39513,-42.955766 5.459598,3.363942 11.782431,5.124734 19.189861,4.871273 l 5.314116,28.194333 c 0.323182,7.16066 3.676247,10.61814 9.004472,11.66153 l 22.880215,6.1998 c 5.05875,2.04098 9.45683,3.06092 11.47702,0.40594 6.47858,-1.29314 14.33419,-4.99609 21.85793,-8.11826 11.86732,-7.61678 10.71325,-2.89083 13.56928,-19.83203 l 4.07078,-23.58967 c 10.13918,-2.700586 14.76546,-10.582652 6.05399,-19.205752 l -5.42771,-6.88902 c -2.37376,-4.184916 -6.7283,-4.48758 -11.58608,-4.905817 z"
           id="path9"
           sodipodi:nodetypes="ccccccccccccccccccccc"
           transform="translate(-11.40218,127.79563)" /><path
           style="opacity:0.978261;fill:#3287bb;fill-opacity:1;stroke:none;stroke-width:0.264583;stroke-linecap:round;stroke-linejoin:round;stroke-dasharray:none;stroke-opacity:1"
           d="m 52.661311,249.80249 c -4.322868,22.39663 30.730754,23.76452 42.377901,20.77144 15.138248,-2.37692 32.107828,-7.85894 47.909998,-21.60647 l -4.17516,-3.23576 15.76124,-3.13137 -1.87882,15.34373 -3.75765,-3.86203 c -13.74631,11.96316 -30.37271,20.04445 -50.519468,23.38092 -37.805703,3.29841 -53.569933,-13.52224 -45.718041,-27.66046 z"
           id="path10"
           sodipodi:nodetypes="ccccccccc" /></g></g></g></svg>
